<svg version="1.2" xmlns="http://www.w3.org/2000/svg" viewBox="0 0 1224 1584" width="58" height="75"><style>.a{fill:#ec1c29}.b{fill:#fefefe}</style><path fill-rule="evenodd" class="a" d="m109 867.9q0-267.3 0-534.7c0-3.6 0.2-7.3 0.7-11 0.3-2.2 1.4-3.3 3.7-3.6q5-0.7 10-0.7 137.5 0 275 0c1.8 0 3.5 0.1 5.3 0 2.9-0.3 3.5-0.9 3.7-3.9 0.1-1.4 0.1-2.9 0.1-4.3 0-25.5 0.1-50.9-0.1-76.3 0-5.1 1.3-9 5.1-12.3 10.5-9.1 19.9-19.5 30.1-28.9 7-6.4 13.7-13 20.4-19.7 3.1-3.2 6.6-4.5 11-4.5 39.9 0.2 79.7 0.1 119.5 0.1 53.3 0 106.6 0.1 159.9-0.1 6 0 10.5 1.5 13.8 6.6 1.1 1.7 2.8 3.1 4.2 4.6 14.2 14.1 28.2 28.3 42.5 42.3 3.3 3.2 4.7 6.4 4.7 11-0.2 26.1-0.1 52.1-0.1 78.2 0 7.2 0 7.2 7.2 7.2q137.7 0 275.5 0c3.2 0 6.4 0.1 9.5 0.6 2.7 0.4 4 1.8 4.1 4.4q0.1 1.2 0.1 2.4 0.1 2.4 0.1 4.8 0 537.3 0 1074.6c0 2 0 3.9-0.1 5.8-0.2 3.8-0.7 4.4-4.4 4.9-1.9 0.3-3.8 0.4-5.7 0.6-1.5 0-2.9 0-4.3 0q-487.4 0-974.8 0c-3.9 0-7.7-0.1-11.5-0.6-3.8-0.5-4.3-0.9-4.8-4.7-0.3-2.3-0.4-4.8-0.4-7.1q0-150.5 0-301 0-117.3 0-234.7zm505.3-550q68.2 0 136.3 0c7.3 0 7.3 0 7.3-7.1q0-36.7 0-73.4c0-8.8 0-8.8-8.7-8.8q-134.8 0-269.6 0c-1.5 0-2.9-0.1-4.4 0.1-3.4 0.2-4.1 1-4.4 4.3-0.1 1.3 0 2.6 0 3.9q0 36.7 0 73.4c0 7.6 0 7.6 7.8 7.6q67.9 0 135.7 0z"/><path class="b" d="m226.9 700.9q0 61.4 0 122.8c0 6.8 0.1 6.9 7.1 6.9q13.6 0 27.3 0c7.7 0 7.7 0 7.7-7.7q0-63.8 0-127.6c0-1.9 0-3.9 0.1-5.8 0.1-1.2 0.2-2.7 1.7-3 1.6-0.4 2.4 0.9 3 2q2.1 3.8 3.9 7.7c4.7 9.8 9 19.8 14.1 29.4 12 22.9 23.1 46.3 34.8 69.5q8.1 16 16.1 32.1c1.2 2.2 2.7 3.4 5.3 3.4q12.9 0 25.9 0c2.7 0 4.6-1 5.8-3.4 0.6-1.1 1.3-2.2 1.9-3.4 11.5-22.8 24.6-44.8 36.6-67.4 9-16.9 18.4-33.6 27.7-50.4q4-7.4 8.1-14.8c0.6-1.1 1.3-2.4 2.8-2.1 1.7 0.3 2.1 1.9 2.2 3.3 0.1 1.9 0.1 3.8 0.1 5.8q0 62.1 0.1 124.2-0.1 2.4 0 4.8c0.1 2.2 1.3 3.3 3.4 3.3q1.9 0.1 3.8 0.1 19.7 0 39.3 0c9.1 0 9.1 0 9.1-9q0-120.6 0-241.3c0-1.1 0-2.3 0-3.4-0.2-4.8-0.8-5.5-5.7-5.5-10.4-0.1-20.8 0.1-31.2-0.1-4.3-0.1-6.7 1.6-8.5 5.5-3 6.5-6.3 12.9-9.7 19.2-14.1 25.5-26.9 51.6-40.8 77.2-5.7 10.3-11 20.9-16.4 31.4-8.5 16.5-17.4 32.8-26.1 49.2-0.8 1.4-1.6 2.8-2.6 4-1.6 1.8-2.9 1.7-4.3-0.2-0.5-0.7-0.8-1.4-1.2-2.1-4.7-8.2-8.7-16.7-13.1-25.1-10-19.4-20.7-38.6-30.5-58.2-8.6-17.1-18.2-33.7-26.9-50.8-7.7-15.1-15.9-29.9-23.7-45-1.9-3.5-4.1-5.2-8.2-5.1-10.4 0.2-20.8 0.1-31.2 0.1-7.8 0-7.8 0-7.8 7.6q0 60.9 0 121.9z"/><path class="b" d="m875.8 705q0-28.1 0-56.2 0.1-34.3 0-68.6c0-6.1-0.4-6.5-6.6-6.5q-13.2-0.1-26.4 0c-8.2 0-8.2 0-8.2 8.1q0 69.6 0 139.2c0 1.8 0 3.5-0.1 5.3-0.1 1.1-0.2 2.3-1.6 2.6-1 0.3-1.8-0.4-2.5-1.1-2.2-2.5-4.4-5-6.5-7.6-8-9.6-15.9-19.3-23.8-28.9-5.4-6.5-10.9-13-16.3-19.5q-18.7-22.5-37.4-45c-13.7-16.7-27.5-33.3-41.1-50-1.8-2.2-3.7-3.2-6.5-3.2-6.1 0.1-12.2 0-18.3 0-10 0.1-10 0.1-10 10.3q0 121 0 241.9c0 1.6 0 3.2 0 4.8 0.1 5.2 0.6 5.7 5.9 5.8 9.6 0 19.2 0 28.8 0 8.2 0 8.2 0 8.2-8.2q0-70.6 0-141.2c0-1.7-0.1-3.5 0-5.2 0.1-1.6-0.4-3.6 1.3-4.4 1.9-0.8 2.7 1.2 3.7 2.3 2.6 2.8 5.2 5.7 7.6 8.7 14.9 18.4 30.6 36.1 45.9 54.1 14.3 16.8 28.5 33.6 43.1 50.2 11.8 13.5 23 27.4 34.9 40.9 1.6 1.8 3.3 2.8 5.7 2.8 4.2-0.1 8.3 0 12.5 0 7.7 0 7.7 0 7.7-7.6q0-61.9 0-123.8z"/><path class="b" d="m461.3 1055.9q0 0 0 0c-4.1 0-8.3-0.1-12.4 0-6.1 0-6.3 0.4-6.5 6.6-0.3 10.8 1.4 21.3 3.5 31.9 3.1 15.1 8.7 29.4 15.9 43 4.6 8.5 10.6 16 16.7 23.4 9.4 11.4 20.6 20.9 32.8 29.1 12.1 8.1 25.4 13.6 39.3 17.5 8.5 2.5 17.1 4.4 25.9 4.8 7.8 0.3 15.5 0.8 23.4 0.3 11.4-0.7 22.5-2.7 33.4-5.8 17.1-5 32.7-12.9 46.7-23.9 8.8-7 17-14.5 24.1-23.3 8.1-10 14.8-20.8 20.4-32.4 10-20.6 14.8-42.4 14.5-65.3-0.1-4.9-0.9-5.8-5.9-5.9q-13.5-0.1-26.9 0c-4.8 0-5.6 0.7-5.5 5.7 0.3 10.1-1.3 20-3.8 29.8-5.9 23.7-19.3 42.6-37.5 58.3-11.7 10-25.6 16.2-40.4 20.4-18.4 5.3-37 5.4-55.4 0.4-20.8-5.7-38.9-15.9-53.5-32.1-11.4-12.6-19.2-27.1-24.5-43-3.9-11.2-5.3-22.9-5.8-34.8-0.2-3.9-0.9-4.6-5-4.7-4.5-0.1-9 0-13.5 0z"/><path class="b" d="m991.1 699.4q0-60.9 0-121.9 0-2.4-0.1-4.8c0-2.1-1.1-3.3-3.2-3.4q-1.9 0-3.8 0-24 0-48 0c-7.2 0-7.2 0-7.2 7.2q0 122.9 0 245.7 0 2 0 3.9c0.1 2.1 1.1 3.2 3.3 3.3q2.1 0.1 4.3 0.1 23.5 0 47 0c7.7 0 7.7 0 7.7-7.7q0-61.2 0-122.4z"/><path class="b" d="m627.2 698.9q0-61.9 0-123.8c0-1.6 0-3.2-0.1-4.8-0.1-1.7-1.1-2.6-2.7-2.7q-2-0.1-3.9-0.1-23.3 0-46.5 0c-7.1 0-7.2 0-7.2 7.2q0 124.3 0 248.6 0 2 0.1 3.9c0.1 2.1 1.2 3.2 3.3 3.3q1.9 0 3.9 0 23 0.1 46 0c7.1 0 7.1 0 7.1-7.3q0-62.1 0-124.3z"/><path class="b" d="m659.3 970.9q30.2 0.1 60.5 0c5.8 0 6.3-0.5 6.4-6.2 0-9 0-17.9 0-26.9 0-7.9-0.1-7.9-8.1-7.9q-59 0-118 0c-0.9 0-1.9-0.1-2.8 0-3.9 0.2-4.5 0.7-4.6 4.5q-0.1 16.1 0 32.2c0.1 3.5 0.8 4.1 4.3 4.3 1.2 0.1 2.5 0 3.8 0q29.3 0 58.5 0z"/><path class="b" d="m494.2 986.3c18.6 0.2 32.3-13.9 32.7-32.6 0.4-18.4-14.7-33.5-32.1-33.3-18.9 0.2-32.7 14-32.5 33.3 0.2 18.2 11.9 31.9 31.9 32.6z"/></svg>